<?xml version="1.0" encoding="utf-8"?>
<!-- Generator: Adobe Illustrator 24.2.3, SVG Export Plug-In . SVG Version: 6.00 Build 0)  -->
<svg version="1.1" id="Layer_1" xmlns="http://www.w3.org/2000/svg" xmlns:xlink="http://www.w3.org/1999/xlink" x="0px" y="0px"
	 viewBox="0 0 559.1 285.8" style="enable-background:new 0 0 559.1 285.8;" xml:space="preserve">
<style type="text/css">
	.st0{fill:#8FAC9A;}
	.st1{fill:#00A19A;}
</style>
<g>
	<g>
		<path class="st0" d="M9.8,257.2c-3-1.1-5.1-2.3-6.3-3.5c-2.4-2.3-3.5-5.1-3.5-8.4c0-3.3,1.2-6.1,3.7-8.6c4.8-4.9,11-7.3,18.7-7.3
			c8.3,0,15.4,3.3,21.4,10c0.5,0.6,0.8,1.4,0.7,2.3c0,1.1-0.4,2-1.2,2.8c-0.8,0.8-1.7,1.2-2.8,1.2c-1.1,0-2-0.3-2.6-1
			c-0.7-0.7-1.1-1.2-1.4-1.5c-3.9-3.9-8.6-5.8-14.1-5.8c-5.5,0-9.9,1.7-13.2,5.2c-0.8,1-1.2,2.1-1.2,3.4c0.1,1.6,0.9,2.6,2.4,3.2
			l24.4,8.1c3,1.1,5.1,2.3,6.3,3.5c2.4,2.3,3.5,5.1,3.5,8.4c0,3.3-1.2,6.1-3.7,8.6c-4.8,4.9-11,7.3-18.7,7.3
			c-8.3,0-15.5-3.3-21.4-10c-0.5-0.7-0.7-1.5-0.7-2.3c0-1.1,0.4-2,1.2-2.8c0.8-0.8,1.7-1.2,2.8-1.2c1.1,0,2,0.3,2.6,1
			c0.7,0.7,1.1,1.2,1.4,1.5c3.9,3.9,8.6,5.8,14.1,5.8c5.5,0,9.9-1.7,13.2-5.2c0.8-1,1.2-2.1,1.2-3.4c-0.1-1.6-0.9-2.6-2.4-3.2
			L9.8,257.2z"/>
		<path class="st0" d="M95.7,271.5c1.1,0,2,0.4,2.8,1.2c0.8,0.8,1.2,1.7,1.2,2.8c0,1.1-0.4,2-1.1,2.8c-5.1,4.5-11.2,6.7-18.1,6.7
			c-7.7,0-14.2-2.7-19.7-8.1c-5.4-5.4-8.1-12-8.1-19.7c0-7.7,2.7-14.2,8.1-19.7c5.4-5.4,12-8.1,19.7-8.1c7.7,0,14.2,2.7,19.7,8.1
			c5.4,5.4,8.1,12,8.1,19.7c0,1.1-0.4,2-1.2,2.8c-0.8,0.8-1.7,1.2-2.8,1.2H60.9c0.7,3.8,2.5,7.2,5.5,10.1c3.9,3.9,8.6,5.8,14.1,5.8
			c5,0,9.2-1.6,12.8-4.7C94,271.8,94.8,271.5,95.7,271.5z M100,253.3c-0.7-3.8-2.5-7.2-5.5-10.1c-3.9-3.9-8.6-5.8-14.1-5.8
			c-5.5,0-10.2,1.9-14.1,5.8c-2.9,2.9-4.7,6.3-5.5,10.1H100z"/>
		<path class="st0" d="M163.9,276.7c-5.6,5.6-12.2,8.3-19.9,8.3c-7.7,0-14.2-2.7-19.7-8.1c-5.4-5.4-8.1-12-8.1-19.7
			c0-7.7,2.7-14.2,8.1-19.7c5.4-5.4,12-8.1,19.7-8.1c7.7,0,14.2,2.7,19.7,8.1c5.4,5.4,8.1,12,8.1,19.7v23.8c0,1.1-0.4,2-1.2,2.8
			c-0.8,0.8-1.7,1.2-2.8,1.2c-1.1,0-2-0.4-2.8-1.2c-0.8-0.8-1.2-1.7-1.2-2.8V276.7z M144,237.4c-5.5,0-10.2,1.9-14.1,5.8
			c-3.9,3.9-5.8,8.6-5.8,14.1c0,5.5,1.9,10.2,5.8,14.1c3.9,3.9,8.6,5.8,14.1,5.8c5.5,0,10.2-1.9,14.1-5.8c3.9-3.9,5.8-8.6,5.8-14.1
			c0-5.5-1.9-10.2-5.8-14.1C154.2,239.3,149.5,237.4,144,237.4z"/>
		<path class="st0" d="M217.5,237.8c0.1-0.1,0.1-0.1,0.2-0.2c5.4-5.4,12-8.1,19.7-8.1c7.7,0,14.2,2.7,19.7,8.1
			c5.4,5.4,8.1,12,8.1,19.7c0,7.7-2.7,14.2-8.1,19.7c-5.4,5.4-12,8.1-19.7,8.1c-7.7,0-14.2-2.7-19.7-8.1c-5.4-5.4-8.1-12-8.1-19.7
			v-47.8c0-1.1,0.4-2,1.2-2.8c0.8-0.8,1.7-1.2,2.8-1.2c1.1,0,2,0.4,2.8,1.2c0.8,0.8,1.2,1.7,1.2,2.8V237.8z M237.4,277.1
			c5.5,0,10.2-1.9,14.1-5.8c3.9-3.9,5.8-8.6,5.8-14.1c0-5.5-1.9-10.2-5.8-14.1c-3.9-3.9-8.6-5.8-14.1-5.8c-5.5,0-10.2,1.9-14.1,5.8
			c-3.9,3.9-5.8,8.6-5.8,14.1c0,5.5,1.9,10.2,5.8,14.1C227.2,275.2,231.9,277.1,237.4,277.1z"/>
		<path class="st0" d="M273.1,233.4c0-1.1,0.4-2,1.2-2.8c0.8-0.8,1.7-1.2,2.8-1.2s2,0.4,2.8,1.2c0.8,0.8,1.2,1.7,1.2,2.8v4.4
			c5.6-5.6,12.2-8.3,19.9-8.3c3.9,0,7.4,0.7,10.7,2c0.6,0.2,1.1,0.6,1.6,1c0.8,0.8,1.1,1.7,1.1,2.8c0,1.1-0.4,2-1.2,2.8
			c-0.8,0.8-1.7,1.2-2.8,1.2c-0.6,0-1.2-0.1-1.7-0.4c-2.4-1-4.9-1.5-7.7-1.5c-5.5,0-10.2,1.9-14.1,5.8c-3.9,3.9-5.8,8.6-5.8,14.1
			v23.8c0,1.1-0.4,2-1.2,2.8c-0.8,0.8-1.7,1.2-2.8,1.2s-2-0.4-2.8-1.2c-0.8-0.8-1.2-1.7-1.2-2.8V233.4z"/>
		<path class="st0" d="M363.9,271.5c1.1,0,2,0.4,2.8,1.2c0.8,0.8,1.2,1.7,1.2,2.8c0,1.1-0.4,2-1.1,2.8c-5.1,4.5-11.2,6.7-18.1,6.7
			c-7.7,0-14.2-2.7-19.7-8.1c-5.4-5.4-8.1-12-8.1-19.7c0-7.7,2.7-14.2,8.1-19.7c5.4-5.4,12-8.1,19.7-8.1c7.7,0,14.2,2.7,19.7,8.1
			c5.4,5.4,8.1,12,8.1,19.7c0,1.1-0.4,2-1.2,2.8c-0.8,0.8-1.7,1.2-2.8,1.2h-43.4c0.7,3.8,2.5,7.2,5.5,10.1c3.9,3.9,8.6,5.8,14.1,5.8
			c5,0,9.2-1.6,12.8-4.7C362.2,271.8,363,271.5,363.9,271.5z M368.1,253.3c-0.7-3.8-2.5-7.2-5.5-10.1c-3.9-3.9-8.6-5.8-14.1-5.8
			c-5.5,0-10.2,1.9-14.1,5.8c-2.9,2.9-4.7,6.3-5.5,10.1H368.1z"/>
		<path class="st0" d="M427.5,271.5c1.1,0,2,0.4,2.8,1.2c0.8,0.8,1.2,1.7,1.2,2.8c0,1.1-0.4,2-1.1,2.8c-5.1,4.5-11.2,6.7-18.1,6.7
			c-7.7,0-14.2-2.7-19.7-8.1c-5.4-5.4-8.1-12-8.1-19.7c0-7.7,2.7-14.2,8.1-19.7c5.4-5.4,12-8.1,19.7-8.1c7.7,0,14.2,2.7,19.7,8.1
			c5.4,5.4,8.1,12,8.1,19.7c0,1.1-0.4,2-1.2,2.8c-0.8,0.8-1.7,1.2-2.8,1.2h-43.4c0.7,3.8,2.5,7.2,5.5,10.1c3.9,3.9,8.6,5.8,14.1,5.8
			c5,0,9.2-1.6,12.8-4.7C425.7,271.8,426.6,271.5,427.5,271.5z M431.7,253.3c-0.7-3.8-2.5-7.2-5.5-10.1c-3.9-3.9-8.6-5.8-14.1-5.8
			c-5.5,0-10.2,1.9-14.1,5.8c-2.9,2.9-4.7,6.3-5.5,10.1H431.7z"/>
		<path class="st0" d="M491.6,277.1c1.1,0,2,0.4,2.8,1.2c0.8,0.8,1.2,1.7,1.2,2.8c0,1.1-0.4,2-1.2,2.8c-0.8,0.8-1.7,1.2-2.8,1.2
			h-39.7c-1.1,0-2-0.4-2.8-1.2c-0.8-0.8-1.2-1.7-1.2-2.8c0-0.9,0.3-1.7,0.8-2.4l34.4-41.3h-31.2c-1.1,0-2-0.4-2.8-1.2
			c-0.8-0.8-1.2-1.7-1.2-2.8c0-1.1,0.4-2,1.2-2.8c0.8-0.8,1.7-1.2,2.8-1.2h39.7c1.1,0,2,0.4,2.8,1.2c0.8,0.8,1.2,1.7,1.2,2.8
			c0,1-0.3,1.9-0.9,2.6l-34.3,41.1H491.6z"/>
		<path class="st0" d="M546.7,271.5c1.1,0,2,0.4,2.8,1.2c0.8,0.8,1.2,1.7,1.2,2.8c0,1.1-0.4,2-1.1,2.8c-5.1,4.5-11.2,6.7-18.1,6.7
			c-7.7,0-14.2-2.7-19.7-8.1c-5.4-5.4-8.1-12-8.1-19.7c0-7.7,2.7-14.2,8.1-19.7c5.4-5.4,12-8.1,19.7-8.1c7.7,0,14.2,2.7,19.7,8.1
			c5.4,5.4,8.1,12,8.1,19.7c0,1.1-0.4,2-1.2,2.8c-0.8,0.8-1.7,1.2-2.8,1.2h-43.4c0.7,3.8,2.5,7.2,5.5,10.1c3.9,3.9,8.6,5.8,14.1,5.8
			c5,0,9.2-1.6,12.8-4.7C544.9,271.8,545.7,271.5,546.7,271.5z M550.9,253.3c-0.7-3.8-2.5-7.2-5.5-10.1c-3.9-3.9-8.6-5.8-14.1-5.8
			c-5.5,0-10.2,1.9-14.1,5.8c-2.9,2.9-4.7,6.3-5.5,10.1H550.9z"/>
	</g>
	<g>
		<path class="st1" d="M231.3,151.9c0,0,0.2-43.9,21.3-80.4c0,0,26.3-41.9,26.7-71.6c0,0,3.1,32-10.5,57.6
			C255.1,83.2,240.1,98.7,231.3,151.9z"/>
	</g>
	<g>
		<path class="st1" d="M243.4,151.8c0,0-7.1-34.7,31.9-88.5c0,0,16.2-23,13.8-41.6c0,0,13.7,31-25.9,80.2
			C263.3,101.8,244.1,122.4,243.4,151.8z"/>
	</g>
	<g>
		<path class="st1" d="M249.6,140.7c0,0,3.8-20.5,22.6-31.1c0,0,22.7-13.9,24.9-24.8c0,0,1,20.5-23.3,32.4
			C273.8,117.1,250.5,128.3,249.6,140.7z"/>
	</g>
	<g>
		<path class="st1" d="M250.6,157.4c0,0-4.4-14.8,17.7-25.4c0,0,12.4-6.3,23.2-17.5c11.8-12.2,17.4-36.9,12.1-62.7
			c-2.6-12.6-7.7-28.1-17.4-46.5c0,0,26.9,32.7,22.7,81.5c0,0-0.7,28.5-12.8,42.1c0,0-1.5,2.1-5.3,3.6c-3.2,1.3-20.1,1.2-31,9.3
			C254.8,145.5,250.6,150.7,250.6,157.4z"/>
	</g>
	<g>
		<path class="st1" d="M251,159.6c0,0,16,5.5,24.5-9.6c0,0,6.1-15,32.9,0.3c0,0,27.1,12.7,44.8,44.4c0,0-41.6-67.4-84.9-34.1
			C268.3,160.5,258.1,168,251,159.6z"/>
	</g>
	<g>
		<path class="st1" d="M265.9,169.2c0,0,7,4,19.6-5.1c0,0,8.5-4.5,16.4-0.1c0,0-4.6-1.3-11.5,2.3
			C290.4,166.4,279.5,174.5,265.9,169.2z"/>
	</g>
	<g>
		<path class="st1" d="M251.7,165.5c0,0,17.1,15.2,48.9,14.5c0,0,25.1-2.7,41.3,6.6c0,0-3.5-6.8-19.1-11.8c-4-1.3-19.8-2.3-28.7-1.9
			C281.8,173.6,263.6,173.2,251.7,165.5z"/>
	</g>
	<g>
		<path class="st1" d="M247.9,172.6c0,0,22.3,17.5,66.6,18.5c0,0,24.5,2.1,36.1,9.1c0,0-15-13.8-42.5-15.4
			C308.1,184.7,264.1,183.2,247.9,172.6z"/>
	</g>
	<g>
		<path class="st1" d="M244.2,172.7l-0.5-0.7l0.7-0.5l-0.7,0.4c-0.1-0.1-0.7-1.2-7.4-11.5l-0.8-1.2c-7.4-11.4-11.1-17.1-18.9-17.5
			c-2.2-0.1-4,0.4-5.6,1.4c-4.1,2.7-3.4,9.1-2.6,10.7c1.9,3.9,6.2,4.1,6.3,4.1c2.6,0,4.5-0.7,5.8-2c1.6-1.6,1.5-3.8,1.5-3.8
			c-0.1-1.2-0.5-2.2-1.3-2.9c-0.8-0.8-2.4-1.5-4-1.3c-1.2,0.1-2.3,0.7-3.1,1.7c-1.5,2-0.6,4.5-0.5,4.5l-1.6,0.6
			c-0.1-0.1-1.3-3.5,0.8-6.2c1.1-1.4,2.6-2.3,4.3-2.4c2.2-0.2,4.3,0.8,5.3,1.8c1,1,1.6,2.4,1.8,4c0,0.1,0.1,2.9-1.9,5.1
			c-1.6,1.7-3.9,2.6-7.1,2.6c-0.3,0-5.5-0.2-7.9-5c-1-2-1.9-9.6,3.2-13c1.9-1.3,4.1-1.8,6.6-1.7c8.7,0.4,12.8,6.8,20.3,18.2l0.8,1.2
			c3.6,5.5,5.4,8.4,6.4,9.9c0.5,0.7,0.8,1.2,1,1.6l-0.7,0.5l0.7-0.5c0.4,0.7,0.3,0.9-0.2,1.2L244.2,172.7z"/>
	</g>
</g>
</svg>
